{
  "accessors": [
    {
      "bufferView": 2,
      "componentType": 5126,
      "count": 420,
      "max": [
        34.85808181762695,
        126.17626953125,
        20.027589797973633
      ],
      "min": [
        -93.7419204711914,
        -114.87373352050781,
        -0.42822256684303284
      ],
      "type": "VEC3"
    },
    {
      "bufferView": 2,
      "byteOffset": 5040,
      "componentType": 5126,
      "count": 420,
      "max": [
        1.0,
        1.0,
        1.0
      ],
      "min": [
        -1.0,
        -1.0,
        -1.0
      ],
      "type": "VEC3"
    },
    {
      "bufferView": 3,
      "componentType": 5126,
      "count": 420,
      "max": [
        1.0,
        0.8704026937484741,
        1.0,
        1.0
      ],
      "min": [
        -1.0,
        -0.9980159997940063,
        -1.0,
        1.0
      ],
      "type": "VEC4"
    },
    {
      "bufferView": 1,
      "componentType": 5126,
      "count": 420,
      "max": [
        0.9995110034942627,
        0.9897405505180359
      ],
      "min": [
        0.000488990277517587,
        0.013604521751403809
      ],
      "type": "VEC2"
    },
    {
      "bufferView": 0,
      "componentType": 5125,
      "count": 1050,
      "type": "SCALAR"
    },
    {
      "bufferView": 2,
      "byteOffset": 10080,
      "componentType": 5126,
      "count": 1597,
      "max": [
        0.9596664905548096,
        231.35000610351563,
        5.232273578643799
      ],
      "min": [
        -113.43287658691406,
        3.420552729949122e-11,
        -0.9596664905548096
      ],
      "type": "VEC3"
    },
    {
      "bufferView": 2,
      "byteOffset": 29244,
      "componentType": 5126,
      "count": 1597,
      "max": [
        1.0,
        1.0,
        1.0
      ],
      "min": [
        -1.0,
        -1.0,
        -1.0
      ],
      "type": "VEC3"
    },
    {
      "bufferView": 3,
      "byteOffset": 6720,
      "componentType": 5126,
      "count": 1597,
      "max": [
        1.0,
        0.8881480693817139,
        1.0,
        1.0
      ],
      "min": [
        -1.0,
        -1.0,
        -1.0,
        1.0
      ],
      "type": "VEC4"
    },
    {
      "bufferView": 1,
      "byteOffset": 3360,
      "componentType": 5126,
      "count": 1597,
      "max": [
        0.9919016361236572,
        0.9995110034942627
      ],
      "min": [
        0.0017828037962317467,
        0.0070955753326416016
      ],
      "type": "VEC2"
    },
    {
      "bufferView": 0,
      "byteOffset": 4200,
      "componentType": 5125,
      "count": 4272,
      "type": "SCALAR"
    },
    {
      "bufferView": 2,
      "byteOffset": 48408,
      "componentType": 5126,
      "count": 2616,
      "max": [
        -35.72893524169922,
        105.28290557861328,
        10.40721321105957
      ],
      "min": [
        -52.33123016357422,
        77.12306213378906,
        -7.66093111038208
      ],
      "type": "VEC3"
    },
    {
      "bufferView": 2,
      "byteOffset": 79800,
      "componentType": 5126,
      "count": 2616,
      "max": [
        0.9972222447395325,
        1.0,
        1.0
      ],
      "min": [
        -0.9998794794082642,
        -1.0,
        -1.0
      ],
      "type": "VEC3"
    },
    {
      "bufferView": 3,
      "byteOffset": 32272,
      "componentType": 5126,
      "count": 2616,
      "max": [
        1.0,
        0.8893977999687195,
        1.0,
        1.0
      ],
      "min": [
        -1.0,
        -0.867594838142395,
        -1.0,
        1.0
      ],
      "type": "VEC4"
    },
    {
      "bufferView": 1,
      "byteOffset": 16136,
      "componentType": 5126,
      "count": 2616,
      "max": [
        0.32466500997543335,
        0.29756927490234375
      ],
      "min": [
        0.035914529114961624,
        0.0016813278198242188
      ],
      "type": "VEC2"
    },
    {
      "bufferView": 0,
      "byteOffset": 21288,
      "componentType": 5125,
      "count": 7662,
      "type": "SCALAR"
    },
    {
      "bufferView": 2,
      "byteOffset": 111192,
      "componentType": 5126,
      "count": 420,
      "max": [
        34.85808181762695,
        126.17626953125,
        20.027589797973633
      ],
      "min": [
        -93.7419204711914,
        -114.87373352050781,
        -0.42822256684303284
      ],
      "type": "VEC3"
    },
    {
      "bufferView": 2,
      "byteOffset": 116232,
      "componentType": 5126,
      "count": 420,
      "max": [
        1.0,
        1.0,
        1.0
      ],
      "min": [
        -1.0,
        -1.0,
        -1.0
      ],
      "type": "VEC3"
    },
    {
      "bufferView": 3,
      "byteOffset": 74128,
      "componentType": 5126,
      "count": 420,
      "max": [
        1.0,
        0.8704026937484741,
        1.0,
        1.0
      ],
      "min": [
        -1.0,
        -0.9980159997940063,
        -1.0,
        1.0
      ],
      "type": "VEC4"
    },
    {
      "bufferView": 1,
      "byteOffset": 37064,
      "componentType": 5126,
      "count": 420,
      "max": [
        0.9995110034942627,
        0.9897405505180359
      ],
      "min": [
        0.000488990277517587,
        0.013604521751403809
      ],
      "type": "VEC2"
    },
    {
      "bufferView": 0,
      "byteOffset": 51936,
      "componentType": 5125,
      "count": 1050,
      "type": "SCALAR"
    },
    {
      "bufferView": 2,
      "byteOffset": 121272,
      "componentType": 5126,
      "count": 1597,
      "max": [
        0.9596664905548096,
        231.35000610351563,
        5.232273578643799
      ],
      "min": [
        -113.43287658691406,
        3.420552729949122e-11,
        -0.9596664905548096
      ],
      "type": "VEC3"
    },
    {
      "bufferView": 2,
      "byteOffset": 140436,
      "componentType": 5126,
      "count": 1597,
      "max": [
        1.0,
        1.0,
        1.0
      ],
      "min": [
        -1.0,
        -1.0,
        -1.0
      ],
      "type": "VEC3"
    },
    {
      "bufferView": 3,
      "byteOffset": 80848,
      "componentType": 5126,
      "count": 1597,
      "max": [
        1.0,
        0.8881480693817139,
        1.0,
        1.0
      ],
      "min": [
        -1.0,
        -1.0,
        -1.0,
        1.0
      ],
      "type": "VEC4"
    },
    {
      "bufferView": 1,
      "byteOffset": 40424,
      "componentType": 5126,
      "count": 1597,
      "max": [
        0.9919016361236572,
        0.9995110034942627
      ],
      "min": [
        0.0017828037962317467,
        0.0070955753326416016
      ],
      "type": "VEC2"
    },
    {
      "bufferView": 0,
      "byteOffset": 56136,
      "componentType": 5125,
      "count": 4272,
      "type": "SCALAR"
    },
    {
      "bufferView": 2,
      "byteOffset": 159600,
      "componentType": 5126,
      "count": 2616,
      "max": [
        -35.72893524169922,
        105.28290557861328,
        10.40721321105957
      ],
      "min": [
        -52.33123016357422,
        77.12306213378906,
        -7.66093111038208
      ],
      "type": "VEC3"
    },
    {
      "bufferView": 2,
      "byteOffset": 190992,
      "componentType": 5126,
      "count": 2616,
      "max": [
        0.9972222447395325,
        1.0,
        1.0
      ],
      "min": [
        -0.9998794794082642,
        -1.0,
        -1.0
      ],
      "type": "VEC3"
    },
    {
      "bufferView": 3,
      "byteOffset": 106400,
      "componentType": 5126,
      "count": 2616,
      "max": [
        1.0,
        0.8893977999687195,
        1.0,
        1.0
      ],
      "min": [
        -1.0,
        -0.867594838142395,
        -1.0,
        1.0
      ],
      "type": "VEC4"
    },
    {
      "bufferView": 1,
      "byteOffset": 53200,
      "componentType": 5126,
      "count": 2616,
      "max": [
        0.32466500997543335,
        0.29756927490234375
      ],
      "min": [
        0.035914529114961624,
        0.0016813278198242188
      ],
      "type": "VEC2"
    },
    {
      "bufferView": 0,
      "byteOffset": 73224,
      "componentType": 5125,
      "count": 7662,
      "type": "SCALAR"
    }
  ],
  "asset": {
    "extras": {
      "author": "adventurer (https://sketchfab.com/ahmagh2e)",
      "license": "CC-BY-4.0 (http://creativecommons.org/licenses/by/4.0/)",
      "source": "https://sketchfab.com/3d-models/door--white--wooden--old-4mb-30341671c7524a6aa20100dda8101e32",
      "title": "door_ white_ wooden _Old - 4MB"
    },
    "generator": "Sketchfab-16.12.0",
    "version": "2.0"
  },
  "bufferViews": [
    {
      "buffer": 0,
      "byteLength": 103872,
      "name": "floatBufferViews",
      "target": 34963
    },
    {
      "buffer": 0,
      "byteLength": 74128,
      "byteOffset": 103872,
      "byteStride": 8,
      "name": "floatBufferViews",
      "target": 34962
    },
    {
      "buffer": 0,
      "byteLength": 222384,
      "byteOffset": 178000,
      "byteStride": 12,
      "name": "floatBufferViews",
      "target": 34962
    },
    {
      "buffer": 0,
      "byteLength": 148256,
      "byteOffset": 400384,
      "byteStride": 16,
      "name": "floatBufferViews",
      "target": 34962
    }
  ],
  "buffers": [
    {
      "byteLength": 548640,
      "uri": "scene.bin"
    }
  ],
  "images": [
    {
      "uri": "textures/material_baseColor.png"
    },
    {
      "uri": "textures/material_metallicRoughness.png"
    },
    {
      "uri": "textures/material_normal.png"
    }
  ],
  "materials": [
    {
      "doubleSided": true,
      "name": "material",
      "normalTexture": {
        "index": 2
      },
      "pbrMetallicRoughness": {
        "baseColorTexture": {
          "index": 0
        },
        "metallicRoughnessTexture": {
          "index": 1
        }
      }
    }
  ],
  "meshes": [
    {
      "name": "f_Mat_0",
      "primitives": [
        {
          "attributes": {
            "NORMAL": 1,
            "POSITION": 0,
            "TANGENT": 2,
            "TEXCOORD_0": 3
          },
          "indices": 4,
          "material": 0,
          "mode": 4
        }
      ]
    },
    {
      "name": "door_Mat_0",
      "primitives": [
        {
          "attributes": {
            "NORMAL": 6,
            "POSITION": 5,
            "TANGENT": 7,
            "TEXCOORD_0": 8
          },
          "indices": 9,
          "material": 0,
          "mode": 4
        }
      ]
    },
    {
      "name": "handel_Mat_0",
      "primitives": [
        {
          "attributes": {
            "NORMAL": 11,
            "POSITION": 10,
            "TANGENT": 12,
            "TEXCOORD_0": 13
          },
          "indices": 14,
          "material": 0,
          "mode": 4
        }
      ]
    },
    {
      "name": "f_2_Mat_0",
      "primitives": [
        {
          "attributes": {
            "NORMAL": 16,
            "POSITION": 15,
            "TANGENT": 17,
            "TEXCOORD_0": 18
          },
          "indices": 19,
          "material": 0,
          "mode": 4
        }
      ]
    },
    {
      "name": "door_2_Mat_0",
      "primitives": [
        {
          "attributes": {
            "NORMAL": 21,
            "POSITION": 20,
            "TANGENT": 22,
            "TEXCOORD_0": 23
          },
          "indices": 24,
          "material": 0,
          "mode": 4
        }
      ]
    },
    {
      "name": "handel_2_Mat_0",
      "primitives": [
        {
          "attributes": {
            "NORMAL": 26,
            "POSITION": 25,
            "TANGENT": 27,
            "TEXCOORD_0": 28
          },
          "indices": 29,
          "material": 0,
          "mode": 4
        }
      ]
    }
  ],
  "nodes": [
    {
      "children": [
        1
      ],
      "matrix": [
        1.0,
        0.0,
        0.0,
        0.0,
        0.0,
        2.220446049250313e-16,
        -1.0,
        0.0,
        0.0,
        1.0,
        2.220446049250313e-16,
        0.0,
        0.0,
        0.0,
        0.0,
        1.0
      ],
      "name": "Sketchfab_model"
    },
    {
      "children": [
        2
      ],
      "matrix": [
        0.009999999776482582,
        0.0,
        0.0,
        0.0,
        0.0,
        0.0,
        0.009999999776482582,
        0.0,
        0.0,
        -0.009999999776482582,
        0.0,
        0.0,
        0.0,
        0.0,
        0.0,
        1.0
      ],
      "name": "3e3e89c6913b4beb88bbe1ee8a741778.fbx"
    },
    {
      "children": [
        3,
        10
      ],
      "name": "RootNode"
    },
    {
      "children": [
        4,
        6,
        8
      ],
      "matrix": [
        1.0,
        0.0,
        0.0,
        0.0,
        0.0,
        1.0,
        0.0,
        0.0,
        0.0,
        0.0,
        1.0,
        0.0,
        28.841598510742188,
        45.07718276977539,
        -0.5610945224761963,
        1.0
      ],
      "name": "Null"
    },
    {
      "children": [
        5
      ],
      "matrix": [
        1.0,
        0.0,
        0.0,
        0.0,
        0.0,
        1.0,
        0.0,
        0.0,
        0.0,
        0.0,
        1.0,
        0.0,
        0.6003209948539734,
        68.64655303955078,
        0.24287192523479462,
        1.0
      ],
      "name": "f"
    },
    {
      "mesh": 0,
      "name": "f_Mat_0"
    },
    {
      "children": [
        7
      ],
      "matrix": [
        1.0,
        0.0,
        0.0,
        0.0,
        0.0,
        1.0,
        0.0,
        0.0,
        0.0,
        0.0,
        1.0,
        0.0,
        28.24127769470215,
        -44.46251678466797,
        -0.8039664030075073,
        1.0
      ],
      "name": "door"
    },
    {
      "mesh": 1,
      "name": "door_Mat_0"
    },
    {
      "children": [
        9
      ],
      "matrix": [
        1.0,
        0.0,
        0.0,
        0.0,
        0.0,
        1.0,
        0.0,
        0.0,
        0.0,
        0.0,
        1.0,
        0.0,
        -28.841598510742188,
        -24.184032440185547,
        0.5610945224761963,
        1.0
      ],
      "name": "handel"
    },
    {
      "mesh": 2,
      "name": "handel_Mat_0"
    },
    {
      "children": [
        11,
        13
      ],
      "matrix": [
        1.0,
        0.0,
        0.0,
        0.0,
        0.0,
        1.0,
        0.0,
        0.0,
        0.0,
        0.0,
        1.0,
        0.0,
        203.42578125,
        45.07718276977539,
        -0.5610945224761963,
        1.0
      ],
      "name": "Null_1"
    },
    {
      "children": [
        12
      ],
      "matrix": [
        1.0,
        0.0,
        0.0,
        0.0,
        0.0,
        1.0,
        0.0,
        0.0,
        0.0,
        0.0,
        1.0,
        0.0,
        0.6003209948539734,
        68.64655303955078,
        0.24287192523479462,
        1.0
      ],
      "name": "f_2"
    },
    {
      "mesh": 3,
      "name": "f_2_Mat_0"
    },
    {
      "children": [
        14,
        15
      ],
      "matrix": [
        0.3142345199094124,
        0.0,
        0.9493453884110361,
        0.0,
        0.0,
        1.0,
        0.0,
        0.0,
        -0.9493453884110361,
        0.0,
        0.3142345199094124,
        0.0,
        28.24127769470215,
        -44.46251678466797,
        -0.8039664030075073,
        1.0
      ],
      "name": "door_2"
    },
    {
      "mesh": 4,
      "name": "door_2_Mat_0"
    },
    {
      "children": [
        16
      ],
      "matrix": [
        1.0,
        0.0,
        0.0,
        0.0,
        0.0,
        1.0,
        0.0,
        0.0,
        0.0,
        0.0,
        1.0,
        0.0,
        -57.08287811279297,
        20.278484344482422,
        1.3650609254837036,
        1.0
      ],
      "name": "handel_2"
    },
    {
      "mesh": 5,
      "name": "handel_2_Mat_0"
    }
  ],
  "samplers": [
    {
      "magFilter": 9729,
      "minFilter": 9987,
      "wrapS": 10497,
      "wrapT": 10497
    }
  ],
  "scene": 0,
  "scenes": [
    {
      "name": "Sketchfab_Scene",
      "nodes": [
        0
      ]
    }
  ],
  "textures": [
    {
      "sampler": 0,
      "source": 0
    },
    {
      "sampler": 0,
      "source": 1
    },
    {
      "sampler": 0,
      "source": 2
    }
  ]
}
