{
  "accessors": [
    {
      "bufferView": 2,
      "componentType": 5126,
      "count": 100,
      "max": [
        0.8820996284484863,
        3.3815760612487793,
        0.11960552632808685
      ],
      "min": [
        -0.765559196472168,
        2.0637409687042236,
        -0.013289651833474636
      ],
      "type": "VEC3"
    },
    {
      "bufferView": 2,
      "byteOffset": 1200,
      "componentType": 5126,
      "count": 100,
      "max": [
        0.9576351046562195,
        0.9576349258422852,
        0.9636792540550232
      ],
      "min": [
        -0.9576351046562195,
        -0.9576351046562195,
        -1.0
      ],
      "type": "VEC3"
    },
    {
      "bufferView": 3,
      "componentType": 5126,
      "count": 100,
      "max": [
        1.0,
        0.9636647701263428,
        0.8944278955459595,
        1.0
      ],
      "min": [
        -0.9636792540550232,
        -0.9636788964271545,
        -0.9576351046562195,
        -1.0
      ],
      "type": "VEC4"
    },
    {
      "bufferView": 1,
      "componentType": 5126,
      "count": 100,
      "max": [
        0.34903043508529663,
        0.9929034113883972
      ],
      "min": [
        0.014965452253818512,
        0.06935145705938339
      ],
      "type": "VEC2"
    },
    {
      "bufferView": 0,
      "componentType": 5125,
      "count": 270,
      "type": "SCALAR"
    },
    {
      "bufferView": 2,
      "byteOffset": 2400,
      "componentType": 5126,
      "count": 4,
      "max": [
        0.749204158782959,
        3.246636390686035,
        -0.011336477473378181
      ],
      "min": [
        -0.6326640844345093,
        2.196636438369751,
        -0.011336478404700756
      ],
      "type": "VEC3"
    },
    {
      "bufferView": 2,
      "byteOffset": 2448,
      "componentType": 5126,
      "count": 4,
      "max": [
        -6.739589997195594e-10,
        0.0,
        1.0
      ],
      "min": [
        -6.739589997195594e-10,
        0.0,
        1.0
      ],
      "type": "VEC3"
    },
    {
      "bufferView": 3,
      "byteOffset": 1600,
      "componentType": 5126,
      "count": 4,
      "max": [
        -3.1377436471302644e-07,
        1.0,
        -2.1147105293978647e-16,
        1.0
      ],
      "min": [
        -3.405980066872871e-07,
        1.0,
        -2.295491315492472e-16,
        1.0
      ],
      "type": "VEC4"
    },
    {
      "bufferView": 1,
      "byteOffset": 800,
      "componentType": 5126,
      "count": 4,
      "max": [
        1.000000238418579,
        1.0000001192092896
      ],
      "min": [
        -1.1920928955078125e-07,
        -1.1920928955078125e-07
      ],
      "type": "VEC2"
    },
    {
      "bufferView": 0,
      "byteOffset": 1080,
      "componentType": 5125,
      "count": 6,
      "type": "SCALAR"
    }
  ],
  "asset": {
    "extras": {
      "author": "SebastianSosnowski (https://sketchfab.com/SebastianSosnowski)",
      "license": "CC-BY-4.0 (http://creativecommons.org/licenses/by/4.0/)",
      "source": "https://sketchfab.com/3d-models/painting-by-zdzislaw-beksinski-1-1b314ec7363f44b296be25f48804451b",
      "title": "Painting by Zdzislaw Beksinski (1)"
    },
    "generator": "Sketchfab-12.67.0",
    "version": "2.0"
  },
  "bufferViews": [
    {
      "buffer": 0,
      "byteLength": 1104,
      "name": "floatBufferViews",
      "target": 34963
    },
    {
      "buffer": 0,
      "byteLength": 832,
      "byteOffset": 1104,
      "byteStride": 8,
      "name": "floatBufferViews",
      "target": 34962
    },
    {
      "buffer": 0,
      "byteLength": 2496,
      "byteOffset": 1936,
      "byteStride": 12,
      "name": "floatBufferViews",
      "target": 34962
    },
    {
      "buffer": 0,
      "byteLength": 1664,
      "byteOffset": 4432,
      "byteStride": 16,
      "name": "floatBufferViews",
      "target": 34962
    }
  ],
  "buffers": [
    {
      "byteLength": 6096,
      "uri": "scene.bin"
    }
  ],
  "images": [
    {
      "uri": "textures/RAMY_baseColor.jpeg"
    },
    {
      "uri": "textures/RAMY_metallicRoughness.png"
    },
    {
      "uri": "textures/RAMY_normal.png"
    },
    {
      "uri": "textures/OBRAZ_baseColor.jpeg"
    },
    {
      "uri": "textures/OBRAZ_metallicRoughness.png"
    },
    {
      "uri": "textures/OBRAZ_normal.png"
    }
  ],
  "materials": [
    {
      "doubleSided": true,
      "name": "RAMY",
      "normalTexture": {
        "index": 2
      },
      "occlusionTexture": {
        "index": 1
      },
      "pbrMetallicRoughness": {
        "baseColorTexture": {
          "index": 0
        },
        "metallicRoughnessTexture": {
          "index": 1
        }
      }
    },
    {
      "doubleSided": true,
      "name": "OBRAZ",
      "normalTexture": {
        "index": 5
      },
      "pbrMetallicRoughness": {
        "baseColorTexture": {
          "index": 3
        },
        "metallicRoughnessTexture": {
          "index": 4
        },
        "roughnessFactor": 0.8370807927
      }
    }
  ],
  "meshes": [
    {
      "name": "Ramy02_RAMY_0",
      "primitives": [
        {
          "attributes": {
            "NORMAL": 1,
            "POSITION": 0,
            "TANGENT": 2,
            "TEXCOORD_0": 3
          },
          "indices": 4,
          "material": 0,
          "mode": 4
        }
      ]
    },
    {
      "name": "Ramy02_OBRAZ_0",
      "primitives": [
        {
          "attributes": {
            "NORMAL": 6,
            "POSITION": 5,
            "TANGENT": 7,
            "TEXCOORD_0": 8
          },
          "indices": 9,
          "material": 1,
          "mode": 4
        }
      ]
    }
  ],
  "nodes": [
    {
      "children": [
        1
      ],
      "matrix": [
        0.9452769160270691,
        0.0,
        0.0,
        0.0,
        0.0,
        2.0989363936398255e-16,
        -0.9452769160270691,
        0.0,
        0.0,
        0.9452769160270691,
        2.0989363936398255e-16,
        0.0,
        0.0,
        0.0,
        0.0,
        1.0
      ],
      "name": "Sketchfab_model"
    },
    {
      "children": [
        2
      ],
      "matrix": [
        1.0,
        0.0,
        0.0,
        0.0,
        0.0,
        0.0,
        1.0,
        0.0,
        0.0,
        -1.0,
        0.0,
        0.0,
        0.0,
        0.0,
        0.0,
        1.0
      ],
      "name": "27793185331b43a19a1d2f5338d20a58.fbx"
    },
    {
      "children": [
        3
      ],
      "name": "RootNode"
    },
    {
      "children": [
        4
      ],
      "matrix": [
        1.0,
        0.0,
        0.0,
        0.0,
        0.0,
        2.220446049250313e-16,
        -1.0,
        0.0,
        0.0,
        1.0,
        2.220446049250313e-16,
        0.0,
        -0.020885735750198364,
        0.06628945469856262,
        0.0005112141370773315,
        1.0
      ],
      "name": "Ramy02"
    },
    {
      "children": [
        5,
        6
      ],
      "matrix": [
        6.123233995736766e-17,
        0.0,
        -1.0,
        0.0,
        -0.0,
        1.0,
        -0.0,
        0.0,
        1.0,
        0.0,
        6.123233995736766e-17,
        0.0,
        -4.999898374080658e-05,
        -2.7216362953186035,
        -0.008019328117370605,
        1.0
      ],
      "name": "Object_4"
    },
    {
      "mesh": 0,
      "name": "Ramy02_RAMY_0"
    },
    {
      "mesh": 1,
      "name": "Ramy02_OBRAZ_0"
    }
  ],
  "samplers": [
    {
      "magFilter": 9729,
      "minFilter": 9987,
      "wrapS": 10497,
      "wrapT": 10497
    }
  ],
  "scene": 0,
  "scenes": [
    {
      "name": "Sketchfab_Scene",
      "nodes": [
        0
      ]
    }
  ],
  "textures": [
    {
      "sampler": 0,
      "source": 0
    },
    {
      "sampler": 0,
      "source": 1
    },
    {
      "sampler": 0,
      "source": 2
    },
    {
      "sampler": 0,
      "source": 3
    },
    {
      "sampler": 0,
      "source": 4
    },
    {
      "sampler": 0,
      "source": 5
    }
  ]
}
